<svg width="31" height="31" viewBox="0 0 31 31" fill="none" xmlns="http://www.w3.org/2000/svg">
<path d="M19.899 6.56905L17.6439 6.56543C15.1104 6.56543 13.4731 8.24523 13.4731 10.8452V12.8184H11.2057C11.0097 12.8184 10.8511 12.9773 10.8511 13.1732V16.0322C10.8511 16.2281 11.0099 16.3868 11.2057 16.3868H13.4731V23.601C13.4731 23.7969 13.6317 23.9556 13.8277 23.9556H16.786C16.9819 23.9556 17.1406 23.7967 17.1406 23.601V16.3868H19.7917C19.9877 16.3868 20.1463 16.2281 20.1463 16.0322L20.1474 13.1732C20.1474 13.0791 20.11 12.989 20.0436 12.9224C19.9772 12.8559 19.8867 12.8184 19.7926 12.8184H17.1406V11.1457C17.1406 10.3417 17.3322 9.93353 18.3795 9.93353L19.8987 9.93299C20.0944 9.93299 20.2531 9.77415 20.2531 9.5784V6.92364C20.2531 6.72807 20.0946 6.56941 19.899 6.56905Z" fill="#75EC9B"/>
<circle cx="15.5654" cy="15.5654" r="14.5" stroke="#75EC9B"/>
</svg>
