<svg width="31" height="31" viewBox="0 0 31 31" fill="none" xmlns="http://www.w3.org/2000/svg">
<path d="M15.8901 0.638794C7.60596 0.638794 0.890137 7.35461 0.890137 15.6388C0.890137 23.923 7.60596 30.6388 15.8901 30.6388C24.1743 30.6388 30.8901 23.923 30.8901 15.6388C30.8809 7.35852 24.1704 0.648071 15.8901 0.638794ZM15.8901 29.6388C8.1582 29.6388 1.89014 23.3707 1.89014 15.6388C1.89014 7.90686 8.1582 1.63879 15.8901 1.63879C23.6221 1.63879 29.8901 7.90686 29.8901 15.6388C29.8813 23.3671 23.6184 29.63 15.8901 29.6388Z" fill="#75EC9B"/>
<path d="M22.3899 6.63879H9.38989C8.00977 6.6405 6.8916 7.75867 6.88989 9.13879V22.1388C6.8916 23.5189 8.00977 24.6371 9.38989 24.6388H22.3899C23.77 24.6371 24.8882 23.5189 24.8899 22.1388V9.13879C24.8882 7.75867 23.77 6.6405 22.3899 6.63879ZM23.8899 22.1388C23.8899 22.9672 23.2183 23.6388 22.3899 23.6388H9.38989C8.56152 23.6388 7.88989 22.9672 7.88989 22.1388V9.13879C7.88989 8.31043 8.56152 7.63879 9.38989 7.63879H22.3899C23.2183 7.63879 23.8899 8.31043 23.8899 9.13879V22.1388Z" fill="#75EC9B"/>
<path d="M15.8904 10.6387C13.1289 10.6387 10.8904 12.8772 10.8904 15.6387C10.8904 18.4001 13.1289 20.6387 15.8904 20.6387C18.6519 20.6387 20.8904 18.4001 20.8904 15.6387C20.8875 12.8784 18.6506 10.6416 15.8904 10.6387ZM15.8904 19.6387C13.6812 19.6387 11.8904 17.8479 11.8904 15.6387C11.8904 13.4294 13.6812 11.6387 15.8904 11.6387C18.0996 11.6387 19.8904 13.4294 19.8904 15.6387C19.8879 17.8467 18.0984 19.6362 15.8904 19.6387Z" fill="#75EC9B"/>
<path d="M21.3899 8.63892C20.5615 8.63892 19.8899 9.31055 19.8899 10.1389C19.8899 10.9673 20.5615 11.6389 21.3899 11.6389C22.2183 11.6389 22.8899 10.9673 22.8899 10.1389C22.8899 9.31055 22.2183 8.63892 21.3899 8.63892ZM21.3899 10.6389C21.1138 10.6389 20.8899 10.415 20.8899 10.1389C20.8899 9.86279 21.1138 9.63892 21.3899 9.63892C21.666 9.63892 21.8899 9.86279 21.8899 10.1389C21.8899 10.415 21.666 10.6389 21.3899 10.6389Z" fill="#75EC9B"/>
</svg>
