<svg width="195" height="26" viewBox="0 0 195 26" fill="none" xmlns="http://www.w3.org/2000/svg">
<g clip-path="url(#clip0)">
<path d="M15.6366 15.6532C15.1187 17.2747 14.0956 18.6875 12.7172 19.6845C11.3388 20.6815 9.67753 21.2102 7.97706 21.1931C6.92463 21.1948 5.8823 20.9878 4.91031 20.5838C3.93831 20.1799 3.05593 19.5871 2.31417 18.8397C1.57241 18.0923 0.985975 17.2052 0.588767 16.2296C0.19156 15.2539 -0.0085451 14.2092 1.96093e-05 13.1557C1.96093e-05 8.43311 3.39561 4.80686 7.94466 4.80686C9.6581 4.77014 11.3366 5.29457 12.7251 6.3004C14.1135 7.30623 15.1358 8.73843 15.6366 10.3792H12.3965C12.0514 9.50314 11.4466 8.75382 10.6635 8.23197C9.8804 7.71011 8.95648 7.44074 8.01594 7.46005C4.95732 7.46005 2.9096 9.78889 2.9096 12.9675C2.9096 16.1462 5.00916 18.501 7.9641 18.501C8.90077 18.5188 9.82128 18.2552 10.6068 17.7441C11.3923 17.233 12.0066 16.4979 12.3706 15.6337L15.6366 15.6532Z" fill="#6FED9B"/>
<path d="M17.2695 20.7974V5.22854H19.9912V6.62974H20.0495C20.7364 5.59182 21.9547 4.91716 23.9765 4.80688V7.78443C21.4492 7.86876 20.1597 9.41916 20.1597 12.0334V20.7974H17.2695Z" fill="#6FED9B"/>
<path d="M29.5625 26L31.837 20.4925L25.6355 5.22852H28.7784L33.3533 17.3138L38.0449 5.22852H41.1878L32.5952 25.987L29.5625 26Z" fill="#6FED9B"/>
<path d="M42.8208 26V5.24151H45.4841V7.62873H45.5425C46.1608 6.73878 46.99 6.01631 47.9558 5.52609C48.9217 5.03586 49.9939 4.7932 51.0765 4.81985C55.7033 4.81985 59.1313 8.41366 59.1313 13.253C59.1416 14.2926 58.9458 15.3238 58.5553 16.2872C58.1648 17.2505 57.5873 18.1267 56.8563 18.8651C56.1253 19.6036 55.2552 20.1895 54.2965 20.5891C53.3378 20.9887 52.3094 21.194 51.2709 21.1931C48.9121 21.1931 46.8061 20.233 45.7952 18.5529H45.7369V26H42.8208ZM56.2087 13.0259C56.2212 11.5812 55.6666 10.1893 54.6644 9.14962C53.6622 8.10995 52.2924 7.5056 50.8497 7.46656C47.9271 7.46656 45.6656 10.0614 45.6656 12.974C45.6269 13.6875 45.7333 14.4014 45.9786 15.0724C46.2238 15.7434 46.6027 16.3575 47.0922 16.8774C47.5818 17.3974 48.1717 17.8123 48.8263 18.0971C49.4809 18.3819 50.1865 18.5306 50.9002 18.5341C51.6139 18.5376 52.3209 18.3959 52.9783 18.1176C53.6357 17.8393 54.2297 17.4302 54.7243 16.9151C55.2189 16.4 55.6038 15.7896 55.8557 15.1211C56.1075 14.4525 56.221 13.7397 56.1893 13.0259H56.2087Z" fill="#6FED9B"/>
<path d="M62.2092 20.7974V7.89471H59.6172V5.22854H62.2092V0H65.1253V5.22854H67.6785V7.89471H65.1253V20.7974H62.2092Z" fill="#6FED9B"/>
<path d="M76.5174 21.1931C72.1369 21.1931 68.2358 17.4566 68.2358 13.0714C68.2358 8.31638 71.9684 4.8069 76.7442 4.8069C77.8364 4.79821 78.9193 5.00758 79.9297 5.42276C80.9401 5.83795 81.8577 6.45061 82.6288 7.22494C83.3999 7.99927 84.009 8.91972 84.4206 9.93248C84.8322 10.9452 85.0379 12.03 85.0259 13.1233C84.9514 15.3177 84.0169 17.3946 82.4247 18.9048C80.8325 20.415 78.7104 21.237 76.5174 21.1931ZM76.6017 7.47955C75.5094 7.477 74.4409 7.79925 73.5317 8.40543C72.6226 9.01162 71.9138 9.87444 71.4952 10.8845C71.0766 11.8945 70.9671 13.0062 71.1805 14.0786C71.3939 15.151 71.9207 16.1358 72.694 16.9082C73.4673 17.6805 74.4523 18.2055 75.5241 18.4166C76.5959 18.6277 77.7061 18.5154 78.7141 18.094C79.722 17.6726 80.5823 16.961 81.1857 16.0495C81.7891 15.1379 82.1084 14.0676 82.1033 12.9741C82.1059 12.2507 81.9653 11.534 81.6895 10.8654C81.4138 10.1967 81.0084 9.5894 80.4969 9.0785C79.9853 8.5676 79.3777 8.16325 78.7091 7.88881C78.0406 7.61436 77.3243 7.47526 76.6017 7.47955V7.47955Z" fill="#6FED9B"/>
<path d="M100.047 26V18.6307H99.9885C99.3921 19.444 98.6109 20.1035 97.7094 20.5547C96.808 21.0059 95.8122 21.2359 94.8044 21.2256C93.7247 21.2309 92.6548 21.0204 91.6574 20.6065C90.66 20.1925 89.7552 19.5835 88.996 18.815C88.2368 18.0465 87.6384 17.134 87.236 16.131C86.8335 15.1281 86.6351 14.0548 86.6524 12.9741C86.6378 11.9057 86.8356 10.8451 87.2343 9.85393C87.6331 8.86281 88.2247 7.96098 88.9749 7.20094C89.7251 6.44089 90.6189 5.83781 91.6041 5.42681C92.5893 5.0158 93.6463 4.80508 94.7137 4.8069C97.1826 4.8069 99.3988 6.1043 100.215 7.3044H100.274V5.22855H102.963V25.987L100.047 26ZM100.3 13.0714C100.321 12.3454 100.197 11.6224 99.9347 10.9452C99.6723 10.268 99.2768 9.65049 98.7716 9.12909C98.2665 8.60768 97.662 8.19304 96.9939 7.9097C96.3258 7.62637 95.6077 7.48009 94.8822 7.47955C94.1705 7.48182 93.4664 7.62685 92.8116 7.90607C92.1568 8.18529 91.5646 8.59303 91.0699 9.10522C90.5751 9.61741 90.1879 10.2237 89.9312 10.8882C89.6744 11.5526 89.5533 12.2619 89.5749 12.9741C89.5449 13.6941 89.66 14.4128 89.9132 15.0874C90.1664 15.762 90.5527 16.3787 91.049 16.9008C91.5452 17.4229 92.1414 17.8396 92.8019 18.1262C93.4624 18.4128 94.1738 18.5635 94.8937 18.5691C95.6136 18.5748 96.3272 18.4354 96.9921 18.1592C97.6571 17.883 98.2597 17.4757 98.7641 16.9615C99.2685 16.4473 99.6644 15.8367 99.9282 15.1662C100.192 14.4956 100.318 13.7788 100.3 13.0584V13.0714Z" fill="#6FED9B"/>
<path d="M116.811 20.7974V19.1107H116.753C115.994 20.4082 114.225 21.1931 112.178 21.1931C108.834 21.1931 105.698 19.3962 105.698 13.9146V5.22852H108.62V13.6616C108.62 16.9052 109.825 18.4945 112.508 18.4945C115.191 18.4945 116.571 16.6132 116.571 13.6033V5.22852H119.494V20.7974H116.811Z" fill="#6FED9B"/>
<path d="M140.398 20.7974V5.22854H143.12V6.62974H143.211C143.917 5.59182 145.155 4.91716 147.17 4.80688V7.78443C144.643 7.86876 143.353 9.41916 143.353 12.0334V20.7974H140.398Z" fill="#6FED9B"/>
<path d="M149.315 3.42515V0H152.231V3.42515H149.315ZM149.315 20.7974V5.22854H152.231V20.7974H149.315Z" fill="#6FED9B"/>
<path d="M166.079 20.7974V19.1107H166.021C165.263 20.4082 163.494 21.1931 161.446 21.1931C158.102 21.1931 154.966 19.3962 154.966 13.9146V5.22852H157.888V13.6616C157.888 16.9052 159.094 18.4945 161.776 18.4945C164.459 18.4945 165.839 16.6132 165.839 13.6033V5.22852H168.762V20.7974H166.079Z" fill="#6FED9B"/>
<path d="M192.078 20.7973V12.0853C192.078 9.13366 190.84 7.47947 188.397 7.47947C185.805 7.47947 184.69 8.90662 184.69 12.0204V20.7973H181.774V11.7155C181.774 8.65362 180.342 7.44704 178.236 7.44704C175.644 7.44704 174.387 8.95852 174.387 12.0269V20.7973H171.471V5.22848H174.166V6.9151H174.218C174.729 6.21981 175.404 5.66291 176.184 5.29479C176.964 4.92667 177.822 4.75896 178.683 4.80682C180.705 4.80682 182.727 5.79285 183.511 7.40163C184.638 5.63067 186.181 4.80682 188.656 4.80682C192.693 4.80682 195 7.33676 195 11.3587V20.7973H192.078Z" fill="#6FED9B"/>
<path d="M126.862 12.9546C127.581 12.9546 128.164 12.3708 128.164 11.6507C128.164 10.9306 127.581 10.3468 126.862 10.3468C126.142 10.3468 125.559 10.9306 125.559 11.6507C125.559 12.3708 126.142 12.9546 126.862 12.9546Z" fill="#6FED9B"/>
<path d="M136.964 12.2021C137.419 11.7483 137.675 11.1324 137.677 10.4895V5.754C137.677 5.61292 137.621 5.47762 137.521 5.37786C137.422 5.27811 137.287 5.22206 137.146 5.22206C136.552 5.23379 135.984 5.46376 135.549 5.86814C135.114 6.27252 134.842 6.82301 134.787 7.41468H134.677C134.069 6.56212 133.257 5.87714 132.314 5.42346C131.371 4.96978 130.33 4.76215 129.285 4.81987C124.704 4.81987 121.14 8.30989 121.14 13.2854C121.14 17.7874 124.846 21.2126 129.395 21.2126C130.446 21.2562 131.488 21.019 132.417 20.5253C133.345 20.0316 134.125 19.2993 134.677 18.4037H134.741C134.747 19.0472 135.006 19.6626 135.462 20.1159C135.918 20.5691 136.535 20.8234 137.178 20.8234C137.319 20.8234 137.454 20.7673 137.554 20.6676C137.653 20.5678 137.709 20.4325 137.709 20.2914V15.504C137.708 15.1867 137.645 14.8726 137.523 14.5799C137.4 14.2871 137.222 14.0214 136.997 13.7979L136.439 13.24C136.377 13.1758 136.342 13.0897 136.342 13C136.342 12.9103 136.377 12.8242 136.439 12.76L136.964 12.2021ZM129.337 18.5205C127.941 18.4246 126.634 17.802 125.68 16.7785C124.725 15.7549 124.194 14.4068 124.194 13.0065C124.194 11.6062 124.725 10.2581 125.68 9.23454C126.634 8.21102 127.941 7.58841 129.337 7.49252C130.064 7.48071 130.785 7.61679 131.458 7.89251C132.13 8.16823 132.74 8.57784 133.249 9.0965C133.759 9.61515 134.158 10.232 134.422 10.9097C134.687 11.5874 134.811 12.3118 134.787 13.0389C134.789 14.4888 134.216 15.8801 133.194 16.9077C132.172 17.9353 130.785 18.5153 129.337 18.5205V18.5205Z" fill="#6FED9B"/>
</g>
<defs>
<clipPath id="clip0">
<rect width="195" height="26" fill="white"/>
</clipPath>
</defs>
</svg>
