<svg width="30" height="31" viewBox="0 0 30 31" fill="none" xmlns="http://www.w3.org/2000/svg">
<circle cx="15" cy="15.6388" r="14.5" stroke="#75EC9B"/>
<path d="M24.8571 9.48094L23.0781 9.24963L23.5425 7.5389L21.4585 8.09014C20.7923 7.70058 20.0359 7.49585 19.2544 7.49585C16.8659 7.49585 14.9227 9.41398 14.9227 11.7716V12.3262C11.9416 12.1662 9.19737 10.7702 7.32359 8.44066L6.83912 7.83835L6.39617 8.47095C6.2208 8.72126 6.07204 8.99116 5.95382 9.27279C5.58638 10.1484 5.52125 11.0944 5.76566 12.0088C5.9093 12.5467 6.16033 13.0537 6.49665 13.4967L5.81003 13.6594L5.9448 14.2138C6.30292 15.6856 7.39819 16.8306 8.80436 17.289L8.12917 18.0693L8.56837 18.4396C9.23212 18.9992 10.0407 19.3466 10.9006 19.4416C9.36102 20.7681 7.34705 21.5719 5.14282 21.5719L5.39085 21.742C7.33637 23.0762 9.62047 23.7816 11.9963 23.7816C15.0922 23.7816 18.0026 22.5916 20.1916 20.4309C22.3806 18.2702 23.5862 15.3973 23.5862 12.3417V11.7716C23.5862 11.5704 23.5719 11.3691 23.5436 11.1706L24.8571 9.48094Z" fill="#75EC9B"/>
</svg>
